HIERARCHY
ROOT Hips
{
	OFFSET -3.958830 18.904000 13.208200
	CHANNELS 6 Xposition Yposition Zposition Zrotation Yrotation Xrotation 
	JOINT LHipJoint
	{
		OFFSET 0.000000 0.000000 0.000000
		CHANNELS 3 Zrotation Yrotation Xrotation
		JOINT LeftUpLeg
		{
			OFFSET 1.800000 -1.400000 0.085000
			CHANNELS 3 Zrotation Yrotation Xrotation
			JOINT LeftLeg
			{
				OFFSET 2.215000 -6.000000 0.000000
				CHANNELS 3 Zrotation Yrotation Xrotation
				JOINT LeftFoot
				{
					OFFSET 2.500000 -6.900000 0.000000
					CHANNELS 3 Zrotation Yrotation Xrotation
					JOINT LeftToeBase
					{
						OFFSET 0.200000 -0.500000 1.950000
						CHANNELS 3 Zrotation Yrotation Xrotation
						End Site
						{
							OFFSET 0.000000 0.000000 0.000000
						}
					}
				}
			}
		}
	}
	JOINT RHipJoint
	{
		OFFSET 0.000000 0.000000 0.000000
		CHANNELS 3 Zrotation Yrotation Xrotation
		JOINT RightUpLeg
		{
			OFFSET -1.800000 -1.400000 0.085000
			CHANNELS 3 Zrotation Yrotation Xrotation
			JOINT RightLeg
			{
				OFFSET -2.215000 -6.000000 0.000000
				CHANNELS 3 Zrotation Yrotation Xrotation
				JOINT RightFoot
				{
					OFFSET -2.500000 -6.900000 0.000000
					CHANNELS 3 Zrotation Yrotation Xrotation
					JOINT RightToeBase
					{
						OFFSET -0.200000 -0.500000 1.950000
						CHANNELS 3 Zrotation Yrotation Xrotation
						End Site
						{
							OFFSET 0.000000 0.000000 0.000000
						}
					}
				}
			}
		}
	}
	JOINT LowerBack
	{
		OFFSET 0.000000 0.000000 0.000000
		CHANNELS 3 Zrotation Yrotation Xrotation
		JOINT Spine
		{
			OFFSET -0.087000 1.940000 -0.288900
			CHANNELS 3 Zrotation Yrotation Xrotation
			JOINT Spine1
			{
				OFFSET 0.000000 1.950000 0.060000
				CHANNELS 3 Zrotation Yrotation Xrotation
				JOINT Neck
				{
					OFFSET 0.000000 0.000000 0.000000
					CHANNELS 3 Zrotation Yrotation Xrotation
					JOINT Neck1
					{
						OFFSET 0.000000 1.600000 0.340000
						CHANNELS 3 Zrotation Yrotation Xrotation
						JOINT Head
						{
							OFFSET 0.000000 1.667000 -0.240000
							CHANNELS 3 Zrotation Yrotation Xrotation
							End Site
							{
								OFFSET 0.000000 0.000000 0.000000
							}
						}
					}
				}
				JOINT LeftShoulder
				{
					OFFSET 0.000000 0.000000 0.000000
					CHANNELS 3 Zrotation Yrotation Xrotation
					JOINT LeftArm
					{
						OFFSET 2.700000 1.550000 -0.730000
						CHANNELS 3 Zrotation Yrotation Xrotation
						JOINT LeftForeArm
						{
							OFFSET 5.450000 0.000000 0.000000
							CHANNELS 3 Zrotation Yrotation Xrotation
							JOINT LeftHand
							{
								OFFSET 3.450000 0.000000 0.000000
								CHANNELS 3 Zrotation Yrotation Xrotation
								JOINT LeftHandIndex1
								{
									OFFSET 0.750000 0.000000 0.000000
									CHANNELS 3 Zrotation Yrotation Xrotation
									End Site
									{
										OFFSET 0.000000 0.000000 0.000000
									}
								}
							}
						}
					}
				}
				JOINT RightShoulder
				{
					OFFSET 0.000000 0.000000 0.000000
					CHANNELS 3 Zrotation Yrotation Xrotation
					JOINT RightArm
					{
						OFFSET -2.700000 1.550000 -0.730000
						CHANNELS 3 Zrotation Yrotation Xrotation
						JOINT RightForeArm
						{
							OFFSET -5.450000 0.000000 0.000000
							CHANNELS 3 Zrotation Yrotation Xrotation
							JOINT RightHand
							{
								OFFSET -3.450000 0.000000 0.000000
								CHANNELS 3 Zrotation Yrotation Xrotation
								JOINT RightHandIndex1
								{
									OFFSET -0.750000 0.000000 0.000000
									CHANNELS 3 Zrotation Yrotation Xrotation
									End Site
									{
										OFFSET 0.000000 0.000000 0.000000
									}
								}
							}
						}
					}
				}
			}
		}
	}
}
MOTION
Frames: 13
Frame Time: 0.016667
0.520790 17.045230 -2.163450 21.888855 -32.422292 -30.911882 -16.133445 11.278538 7.338438 14.261085 6.580897 -77.099535 -1.274284 15.192397 48.415662 1.076380 9.980151 0.847959 0.979280 0.700650 0.952130 17.983604 -8.724511 0.483444 -25.655893 7.967185 -4.207535 6.900029 -6.985642 32.236851 -0.870189 -5.398546 2.199802 -0.009490 -0.678400 0.409080 -1.481317 -4.654422 -9.589754 -17.623239 22.185546 66.868783 10.551813 13.207806 0.266419 2.210457 -13.304200 -17.687602 -27.448524 13.194907 42.661444 -6.366830 2.766640 -28.900040 -22.516760 -15.178112 8.082708 -55.243531 21.242361 -25.348097 -50.335236 -3.875737 -8.840820 -2.765649 3.374922 0.611600 -0.642690 0.743480 0.192460 20.716011 38.802592 12.154744 26.349109 21.705135 -13.865481 -143.779775 23.079800 -102.393472 2.497913 -1.990447 0.544640 -0.322450 -0.666770 0.001450 
0.563030 17.068620 -2.088540 23.540822 -34.072581 -31.317057 -16.191376 10.886698 7.767514 16.596345 6.234900 -79.579647 0.913383 17.607390 60.493108 1.523889 11.672651 0.408178 0.948590 0.679860 0.966650 18.056975 -8.591667 0.288212 -25.374827 8.266752 -7.617458 4.930691 -6.536281 36.011170 -0.878259 -5.438841 2.191018 -0.036850 -0.680040 0.403500 -1.449877 -4.376793 -9.761111 -19.426331 23.637345 64.986675 11.858447 12.703794 1.385955 1.513417 -12.236335 -17.408695 -26.199860 12.348914 43.450738 -7.761210 3.015480 -30.052850 -22.090765 -16.277850 8.459874 -54.166312 19.364033 -24.196789 -52.091624 -5.672121 -7.876746 -2.772711 3.370166 0.615150 -0.635830 0.759990 0.178640 21.758311 37.770921 12.429454 28.977601 18.896137 -15.114894 -145.459542 30.746357 -121.285512 2.595318 -1.893567 0.538510 -0.302120 -0.666640 -0.005570 
0.620820 17.096320 -2.008940 24.162556 -35.444241 -31.562083 -16.199850 10.724066 7.924965 17.057626 4.209132 -79.990493 2.383722 19.524499 70.563775 2.006179 12.953923 0.113515 0.964180 0.715780 0.998170 18.101937 -8.511534 0.285729 -24.502972 8.592303 -10.527763 3.588112 -6.294465 39.891816 -0.957482 -5.652092 2.128605 -0.068650 -0.720910 0.435790 -1.434282 -4.284149 -9.851313 -20.137400 24.126876 64.278864 12.520624 11.980134 1.577582 1.339225 -11.154699 -17.308298 -24.772438 11.769951 44.697938 -9.201920 3.421940 -31.476100 -21.485918 -17.126467 8.687610 -53.769226 17.873720 -23.712059 -54.120625 -7.735528 -6.828980 -2.749986 3.430200 0.600020 -0.648220 0.812850 0.180650 21.527290 36.818603 12.686481 32.325973 16.016656 -16.550680 -147.525920 38.021316 -137.763538 2.687034 -1.895373 0.601820 -0.337370 -0.699030 0.010860 
0.685270 17.090830 -1.914300 22.861790 -36.800788 -30.869358 -16.166832 10.539062 8.036394 18.370536 2.365248 -78.472235 2.906546 22.192376 80.197943 2.482896 14.363779 -0.186098 0.947660 0.709280 0.987350 18.166325 -8.428317 0.428406 -21.945634 9.288808 -13.137170 2.271800 -6.164510 44.960766 -1.094798 -6.092217 1.999656 -0.088860 -0.737770 0.422990 -1.578581 -4.031653 -9.940983 -18.948744 22.311148 64.774005 12.034931 10.843050 0.558001 1.296779 -11.084430 -17.696841 -26.195605 13.002544 45.645399 -8.850160 3.672590 -32.439510 -20.889834 -17.738241 9.037548 -54.508763 17.392096 -23.870147 -53.918258 -10.032434 -5.633348 -2.713298 3.423729 0.626010 -0.678640 0.838610 0.175810 21.230883 36.133612 12.926161 36.131853 13.209371 -17.978376 -150.844008 45.923999 -153.525474 2.720846 -1.913068 0.602690 -0.326560 -0.695840 0.014700 
0.749340 17.067620 -1.810810 20.719455 -39.300006 -29.739178 -16.121677 10.540043 7.888100 19.279609 1.009962 -74.287091 2.581218 25.270260 87.237751 2.921623 15.548481 -0.425349 0.977750 0.723510 1.021140 18.211500 -8.266755 0.738522 -18.185911 10.378534 -15.584029 1.049778 -6.122524 50.425183 -1.321035 -6.662548 1.831661 -0.119890 -0.805410 0.435290 -1.648287 -4.036920 -10.000823 -17.348485 20.735914 64.995207 12.243264 10.343281 -1.373338 1.607514 -11.024000 -18.648799 -28.902185 14.946442 48.465943 -8.975820 3.737870 -33.575050 -20.088832 -18.477938 9.450633 -56.656399 17.147158 -24.720706 -52.758119 -11.053747 -5.193753 -2.639018 3.429540 0.686060 -0.746790 0.902350 0.173390 20.443872 35.746664 13.514613 41.166313 7.899189 -21.919403 -157.344852 56.233023 -172.909784 2.669478 -1.962029 0.639420 -0.351160 -0.716710 0.009820 
0.807960 17.020380 -1.708470 17.644986 -40.263299 -26.996634 -16.112998 10.591187 7.700321 19.044097 -1.671832 -70.527865 0.899633 27.631915 90.356946 3.186316 16.378327 -0.597671 0.976750 0.709420 1.049530 18.196400 -8.033280 1.154669 -14.629053 11.025746 -18.130602 0.892312 -6.908742 54.804994 -1.532904 -7.258186 1.649252 -0.139550 -0.863120 0.417270 -1.702158 -4.220037 -10.042306 -15.568346 18.511186 64.881957 12.646916 9.380209 -3.932606 2.016719 -10.432051 -18.984983 -30.372098 16.206807 51.334193 -9.404010 4.171250 -34.323680 -20.045896 -19.149620 9.659539 -57.588318 16.421154 -24.691941 -51.072559 -11.223884 -5.021696 -2.599734 3.398376 0.752180 -0.799710 0.942060 0.146560 20.016308 34.754130 13.556461 45.923189 2.163823 -27.466044 -173.372854 68.164552 162.739824 2.559925 -1.795383 0.631020 -0.352960 -0.715170 -0.020680 
0.847770 16.937880 -1.609010 14.664898 -40.533512 -23.470417 -16.126061 10.780649 7.386565 17.315919 -4.568063 -66.950444 0.160821 27.758481 90.883303 3.271442 16.614299 -0.659839 0.972610 0.698200 1.094870 18.137373 -7.832658 1.599339 -11.182912 11.305536 -20.986682 0.511360 -7.540120 57.823946 -1.701243 -7.656452 1.540131 -0.163950 -0.921720 0.405870 -1.674670 -4.531661 -10.039432 -14.735641 16.697196 63.064614 13.428266 8.260987 -6.653641 2.626877 -8.991244 -18.908843 -28.692462 16.652471 55.952999 -11.290260 5.995820 -34.594470 -20.360055 -19.307883 9.620052 -60.294643 15.809638 -24.905868 -45.303965 -10.681103 -4.933670 -2.591858 3.320180 0.811380 -0.830840 0.989970 0.118260 19.276630 32.774410 13.030893 51.330817 -2.714853 -34.166322 142.916480 76.329646 114.902993 2.748493 -0.689103 0.624180 -0.357230 -0.717430 -0.062210 
0.871130 16.823280 -1.500800 11.051103 -41.179387 -19.321698 -16.135920 11.071623 6.997183 15.989204 -6.272792 -62.294045 -1.201022 26.826366 88.136764 3.231639 16.240760 -0.581486 0.979120 0.709590 1.106730 18.077497 -7.635432 2.053673 -7.102345 11.547340 -23.608399 -0.079117 -7.717829 59.262993 -1.808358 -7.794688 1.524216 -0.185560 -0.955140 0.409420 -1.638076 -4.955368 -10.015017 -13.715582 14.387280 60.648725 14.201963 7.019975 -8.848586 3.198599 -8.311268 -18.832839 -28.418398 17.205138 57.905506 -12.234640 7.499080 -34.646360 -20.964211 -17.940132 8.976078 -63.797579 15.441043 -25.118868 -37.086062 -11.977490 -3.963333 -2.578566 3.270306 0.831680 -0.851180 1.027120 0.128010 18.778749 30.088159 12.950940 54.768058 -4.803668 -24.768270 74.451498 87.096833 44.267844 3.725583 -0.733975 0.643050 -0.379450 -0.740000 -0.066720 
0.874420 16.683520 -1.373830 7.034656 -43.536716 -15.115640 -16.156541 11.544933 6.507692 15.496941 -6.066408 -56.860608 -2.501770 24.993981 82.871368 3.041225 15.319244 -0.387977 0.999030 0.739000 1.101270 18.014147 -7.465112 2.394022 -1.836667 11.663140 -24.308456 -1.704781 -6.448956 57.781872 -1.780183 -7.352318 1.689574 -0.193160 -0.953830 0.428700 -1.461894 -5.623432 -9.883559 -12.633938 12.233786 57.350128 15.171900 6.783730 -11.158655 3.563328 -8.501436 -17.377883 -30.234794 18.853507 57.739615 -12.636070 9.080140 -34.038310 -22.925807 -14.300951 7.865172 -66.301609 15.328942 -23.767006 -27.054156 -13.029941 -2.961726 -2.595752 3.235293 0.813420 -0.848170 1.042440 0.158880 20.022268 26.512421 11.792701 52.778709 -6.486782 -27.910068 44.010600 71.596871 18.909827 2.671879 -1.914231 0.676760 -0.405810 -0.764910 -0.046570 
0.874890 16.501550 -1.234130 2.779742 -44.701266 -10.459927 -16.169958 11.940286 6.045613 14.906140 -6.200341 -52.003153 -4.167949 22.629708 75.846445 2.714293 14.114154 -0.123444 0.976160 0.705610 1.076300 17.941850 -7.332091 2.798567 1.790103 11.967500 -25.493288 -1.576980 -6.618352 57.375471 -1.769604 -7.292421 1.727627 -0.203820 -0.906550 0.436950 -1.409586 -6.126259 -9.770610 -10.317022 8.656331 53.959087 14.282195 5.925374 -12.673952 3.911182 -8.764785 -15.438331 -31.238976 20.004920 55.527481 -12.397750 10.938220 -31.993410 -24.432006 -10.115987 6.285444 -67.081082 14.619933 -21.143843 -16.315208 -13.181714 -2.220457 -2.673826 3.185640 0.784330 -0.802620 0.999910 0.163220 20.571152 22.115721 10.049785 51.812457 -5.919540 -25.114634 29.502754 57.857691 8.766941 2.725809 -1.726527 0.664670 -0.421650 -0.749180 -0.049000 
0.884520 16.348080 -1.086790 -2.856098 -47.382608 -5.057456 -16.138173 12.319780 5.571601 16.128288 -4.641252 -46.555125 -6.524452 20.887456 67.485973 2.341628 12.748458 0.168402 1.024040 0.750960 1.080970 17.898829 -7.341652 3.195196 6.856701 12.211797 -24.459736 -2.856604 -5.594007 55.552150 -1.745743 -6.921441 1.849031 -0.176200 -0.916120 0.469530 -1.518667 -6.282801 -9.629760 -5.533649 4.775865 51.217203 10.822302 5.748605 -13.830827 4.854418 -9.085956 -14.075079 -32.853846 21.148181 54.336280 -13.175210 12.233020 -30.611060 -27.395964 -6.880195 4.359684 -65.233912 13.589978 -17.322231 -5.433049 -11.011760 -1.646966 -2.704943 3.218234 0.770060 -0.788700 1.003800 0.194160 21.396913 19.089691 8.766633 51.907057 -4.341775 -21.153413 15.416914 42.999774 2.264923 2.791728 -1.552437 0.691540 -0.469720 -0.774330 -0.045300 
0.866400 16.251180 -0.935300 -8.066808 -50.329488 -0.917201 -16.069601 12.797794 4.970923 17.878673 -2.566411 -39.544398 -9.158689 19.620701 58.411428 1.942584 11.388307 0.481316 1.087040 0.821070 1.117710 17.866554 -7.450268 3.533878 10.349241 12.499789 -22.279767 -3.001314 -5.246169 54.568871 -1.775483 -6.770219 1.910902 -0.118830 -0.922650 0.459540 -1.635340 -6.402702 -9.428459 -0.996514 2.549234 49.259276 8.146718 6.255329 -14.491218 5.388679 -9.121951 -13.461658 -35.271886 22.939248 55.074350 -12.832340 12.724180 -30.121830 -31.824799 -5.442440 2.783326 -61.343606 12.998785 -13.958644 2.609349 -8.262820 -1.157234 -2.719515 3.207780 0.791380 -0.789660 1.016930 0.212260 24.620737 17.421147 8.162261 49.854542 -4.726070 -17.099350 5.771229 30.504289 -0.090348 2.837329 -1.404602 0.684440 -0.440420 -0.795010 -0.057530 
0.853020 16.181750 -0.830580 -9.737544 -49.934487 0.365702 -16.016823 13.044290 4.764559 18.732106 -2.821223 -35.517360 -11.441162 18.958765 53.467553 1.749801 10.712465 0.638732 1.138310 0.875150 1.184160 17.842437 -7.608986 3.549454 10.094307 11.951389 -21.882350 -1.319258 -6.505386 54.626132 -1.822148 -6.910632 1.847457 -0.076880 -0.952110 0.473140 -1.641221 -6.512239 -9.309339 0.541622 1.384124 47.759408 7.410382 5.833710 -13.690331 5.267330 -8.572621 -12.846827 -34.900583 22.989728 56.839864 -13.270840 12.806320 -30.670320 -33.750490 -5.283791 1.748572 -57.574454 10.130958 -11.188839 6.695982 -6.021018 -0.844488 -2.758555 3.224402 0.797910 -0.785950 1.040450 0.197200 26.512221 16.209678 7.671439 49.149836 -4.580927 -13.577350 -1.721916 19.689159 -0.764111 2.937127 -1.315845 0.694760 -0.438120 -0.807930 -0.081020 
